<?xml version="1.0" encoding="UTF-8"?><svg id="Layer_2" xmlns="http://www.w3.org/2000/svg" viewBox="0 0 350 397.78"><defs><style>.cls-1{fill:#c4db63;}.cls-1,.cls-2,.cls-3,.cls-4{fill-rule:evenodd;}.cls-2{fill:#96c424;}.cls-3{fill:#a6bf30;}.cls-4{fill:#7dab05;}</style></defs><g id="first"><path class="cls-3" d="M246.27,324.23l-36.91-21.31c-3.95-2.28-6.28-6.32-6.28-10.88v-42.62l36.91,21.31c3.95,2.28,6.28,6.32,6.28,10.88v42.62h0ZM29.17,198.89l36.92-21.31c3.95-2.28,8.61-2.28,12.56,0l36.92,21.31-36.91,21.31c-3.95,2.28-8.61,2.28-12.57,0l-36.91-21.31h0Zm176.1-51.79v-40.1c0-4.56,2.33-8.6,6.28-10.88l34.72-20.05v40.1c0,4.56-2.33,8.6-6.28,10.88l-34.72,20.05h0Z"/><path class="cls-4" d="M101.54,324.23v-42.62c0-4.56,2.33-8.6,6.28-10.88l36.91-21.31v42.62c0,4.56-2.33,8.6-6.28,10.88l-36.91,21.31h0Zm43.2-175.87l-36.91-21.31c-3.95-2.28-6.28-6.32-6.28-10.88v-42.62l36.91,21.31c3.95,2.28,6.28,6.32,6.28,10.88v42.62h0Zm87.51,50.52l36.91-21.31c3.95-2.28,8.62-2.28,12.57,0l39.1,22.58-36.91,21.31c-3.95,2.28-8.61,2.28-12.56,0l-39.1-22.58h0Z"/><path class="cls-2" d="M203.08,245.79v-22.8c0-4.56,2.33-8.6,6.28-10.88l19.75-11.4,40.67,23.48c4.92,2.84,10.79,2.84,15.71,0l38.49-22.22,17.56,10.14c3.95,2.28,6.28,6.32,6.28,10.88v69.05c0,4.56-2.33,8.6-6.28,10.88l-59.8,34.53c-3.95,2.28-8.62,2.28-12.57,0l-19.74-11.4v-44.44c0-5.68-2.93-10.76-7.86-13.6l-38.48-22.22h0Zm-.96-96.87l-21.93,12.66c-3.95,2.28-8.61,2.28-12.56,0l-19.75-11.4v-44.44c0-5.68-2.93-10.76-7.85-13.6l-38.49-22.22v-22.8c0-4.56,2.33-8.6,6.28-10.88L167.62,1.71c3.95-2.28,8.62-2.28,12.56,0l59.8,34.53c3.95,2.28,6.28,6.32,6.28,10.88v25.33l-36.3,20.96c-4.92,2.84-7.85,7.92-7.85,13.6v41.91h0Zm-103.73,177.13l-19.74,11.4c-3.95,2.28-8.61,2.28-12.57,0L6.28,302.92c-3.95-2.28-6.28-6.32-6.28-10.88v-69.05c0-4.56,2.33-8.6,6.28-10.88l19.75-11.4,38.48,22.22c4.92,2.84,10.79,2.84,15.71,0l38.48-22.22,19.75,11.4c3.95,2.28,6.28,6.32,6.28,10.88v22.8l-38.49,22.22c-4.92,2.84-7.86,7.92-7.86,13.6v44.44h0Z"/><path class="cls-1" d="M246.27,327.86v22.8c0,4.56-2.33,8.6-6.28,10.88l-59.8,34.53c-3.95,2.28-8.61,2.28-12.56,0l-59.8-34.53c-3.95-2.28-6.28-6.32-6.28-10.88v-22.8l38.49-22.22c4.92-2.84,7.85-7.92,7.85-13.6v-44.44l19.75-11.4c3.95-2.28,8.62-2.28,12.56,0l19.75,11.4v44.44c0,5.68,2.93,10.76,7.86,13.6l38.48,22.22h0Zm37.03-153.01c-4.93-2.84-10.79-2.84-15.71,0l-38.49,22.22-17.56-10.14c-3.95-2.28-6.28-6.32-6.28-10.88v-25.32l36.3-20.96c4.92-2.84,7.86-7.92,7.86-13.6v-41.91l21.93-12.66c3.95-2.28,8.61-2.28,12.56,0l59.8,34.53c3.95,2.28,6.28,6.32,6.28,10.88v69.05c0,4.56-2.33,8.6-6.28,10.88l-19.75,11.4-40.67-23.48h0Zm-203.08,0c-4.92-2.84-10.79-2.84-15.71,0l-38.48,22.22-19.75-11.4c-3.95-2.28-6.28-6.32-6.28-10.88V105.74c0-4.56,2.33-8.6,6.28-10.88l59.8-34.53c3.95-2.28,8.61-2.28,12.56,0l19.75,11.4v44.44c0,5.68,2.93,10.76,7.86,13.6l38.49,22.22v22.8c0,4.56-2.33,8.6-6.28,10.88l-19.75,11.4-38.48-22.22h0Z"/></g></svg>