<svg xmlns="http://www.w3.org/2000/svg" viewBox="0 0 640 400"><line x1="90" y1="210" x2="240" y2="90" stroke="#9dc41a" stroke-width="3" opacity="0.7"/><line x1="90" y1="210" x2="300" y2="270" stroke="#9dc41a" stroke-width="3" opacity="0.7"/><line x1="300" y1="270" x2="455" y2="150" stroke="#9dc41a" stroke-width="3" opacity="0.7"/><line x1="240" y1="90" x2="455" y2="150" stroke="#9dc41a" stroke-width="3" opacity="0.7"/><line x1="455" y1="150" x2="560" y2="320" stroke="#9dc41a" stroke-width="3" opacity="0.7"/><line x1="300" y1="270" x2="560" y2="320" stroke="#9dc41a" stroke-width="3" opacity="0.7"/><line x1="240" y1="90" x2="120" y2="60" stroke="#9dc41a" stroke-width="3" opacity="0.7"/><polygon points="135.0,236.0 90.0,262.0 45.0,236.0 45.0,184.0 90.0,158.0 135.0,184.0" fill="none" stroke="#9dc41a" stroke-width="5"/><polygon points="274.6,110.0 240.0,130.0 205.4,110.0 205.4,70.0 240.0,50.0 274.6,70.0" fill="#c6d768"/><polygon points="350.2,299.0 300.0,328.0 249.8,299.0 249.8,241.0 300.0,212.0 350.2,241.0" fill="none" stroke="#76ac41" stroke-width="5"/><polygon points="493.1,172.0 455.0,194.0 416.9,172.0 416.9,128.0 455.0,106.0 493.1,128.0" fill="#9dc41a"/><polygon points="592.9,339.0 560.0,358.0 527.1,339.0 527.1,301.0 560.0,282.0 592.9,301.0" fill="none" stroke="#9dc41a" stroke-width="4"/><polygon points="142.5,73.0 120.0,86.0 97.5,73.0 97.5,47.0 120.0,34.0 142.5,47.0" fill="#76ac41"/></svg>